<svg width="34" height="40" viewBox="0 0 34 40" fill="none" xmlns="http://www.w3.org/2000/svg">
<path d="M4.28516 10.2432H29.3699M10.5563 10.2432V7.42116C10.5563 3.95762 13.364 1.1499 16.8275 1.1499C20.291 1.1499 23.0987 3.95762 23.0987 7.42116V10.2432M23.0987 16.5145C23.0987 19.978 20.291 22.7857 16.8275 22.7857C13.364 22.7857 10.5563 19.978 10.5563 16.5145" stroke="white" stroke-width="2.3" stroke-miterlimit="10" stroke-linecap="round" stroke-linejoin="round"/>
<path d="M29.3702 10.2427L32.4811 34.6182C32.4976 34.7495 32.5058 34.8818 32.5058 35.0141C32.5058 36.7459 31.1019 38.1498 29.3702 38.1498H4.2855C2.55379 38.1498 1.1499 36.7459 1.1499 35.0141C1.1499 34.88 1.15829 34.7478 1.17467 34.6182L4.2855 10.2427" stroke="white" stroke-width="2.3" stroke-miterlimit="10" stroke-linecap="round" stroke-linejoin="round"/>
</svg>
